<svg width="119" height="46" viewBox="0 0 119 46" fill="none" xmlns="http://www.w3.org/2000/svg">
<path fill-rule="evenodd" clip-rule="evenodd" d="M52.8679 34.3385C46.6058 34.3385 43.4746 30.6865 43.4746 23.3813C43.4746 19.7493 44.2925 17.01 45.9286 15.1628C47.5642 13.3156 49.8772 12.3922 52.8679 12.3922C54.2932 12.3922 55.5973 12.6899 56.7817 13.2844C57.9658 13.8793 58.9194 14.6884 59.642 15.711C59.7819 15.9197 59.8526 16.1387 59.8526 16.3685C59.8526 16.6609 59.7623 16.9006 59.5817 17.0884C59.4014 17.2762 59.1704 17.3701 58.8894 17.3701C58.5681 17.3701 58.3068 17.2348 58.1066 16.9633C57.5648 16.1912 56.8274 15.5593 55.8937 15.0689C54.9605 14.5788 53.9516 14.3333 52.8679 14.3333C50.5196 14.3333 48.7183 15.0849 47.4641 16.5875C46.2093 18.0903 45.5824 20.3552 45.5824 23.3813C45.5824 26.5327 46.1942 28.8239 47.4187 30.2529C48.6426 31.6828 50.4596 32.3975 52.8679 32.3975C53.9115 32.3975 54.9047 32.1782 55.8485 31.7403C56.7915 31.302 57.5447 30.6652 58.1066 29.8307C58.2871 29.559 58.5479 29.4237 58.8894 29.4237C59.1704 29.4237 59.4014 29.5225 59.5817 29.7208C59.7623 29.9193 59.8526 30.1544 59.8526 30.4252C59.8526 30.634 59.7923 30.832 59.6723 31.0201C59.0097 32.0219 58.0561 32.8258 56.8117 33.4308C55.5673 34.0359 54.2528 34.3385 52.8679 34.3385Z" fill="white"/>
<path fill-rule="evenodd" clip-rule="evenodd" d="M63.1078 19.6721C63.2987 19.4843 63.5239 19.3901 63.7852 19.3901C64.046 19.3901 64.2717 19.4899 64.4624 19.6878C64.653 19.8864 64.7487 20.1211 64.7487 20.3923V28.5635C64.7487 29.7325 65.0092 30.6559 65.5315 31.3341C66.0531 32.0126 67.0162 32.3514 68.4216 32.3514C69.8264 32.3514 70.7895 32.0126 71.3116 31.3341C71.8337 30.6559 72.0948 29.7325 72.0948 28.5635V20.3923C72.0948 20.1211 72.1898 19.8864 72.3805 19.6878C72.5715 19.4899 72.807 19.3901 73.0882 19.3901C73.3487 19.3901 73.5702 19.4899 73.7505 19.6878C73.9314 19.8864 74.0214 20.1211 74.0214 20.3923V28.5635C74.0214 30.2961 73.6196 31.6785 72.8171 32.7115C72.0143 33.7449 70.549 34.2613 68.4216 34.2613C66.2939 34.2613 64.8286 33.7449 64.0261 32.7115C63.223 31.6785 62.8218 30.2961 62.8218 28.5635V20.3923C62.8218 20.1004 62.9168 19.8605 63.1078 19.6721Z" fill="white"/>
<path fill-rule="evenodd" clip-rule="evenodd" d="M78.7684 23.7273V28.0477C78.7684 29.4878 79.1301 30.5733 79.8524 31.3037C80.575 32.0344 81.5385 32.3995 82.7431 32.3995C85.5728 32.3995 86.9877 30.4894 86.9877 26.6703C86.9877 22.8719 85.5728 20.9719 82.7431 20.9719C82.221 20.9719 81.7241 21.0664 81.2522 21.2542C80.7806 21.4422 80.3989 21.6717 80.1084 21.9429C79.8171 22.2143 79.5664 22.4858 79.3559 22.7567C79.145 23.0284 78.9992 23.2579 78.919 23.4457L78.7684 23.7273ZM82.8633 19.1563C86.8974 19.1563 88.9149 21.6612 88.9149 26.6703C88.9149 29.1956 88.3824 31.0842 87.3191 32.3365C86.2547 33.5889 84.7299 34.2152 82.743 34.2152C80.9563 34.2152 79.526 33.6883 78.4527 32.6342C77.3788 31.5805 76.8418 30.0514 76.8418 28.0477V12.5193C76.8418 12.2275 76.9371 11.9872 77.1281 11.7994C77.3185 11.6113 77.5442 11.5175 77.805 11.5175C78.0657 11.5175 78.292 11.6113 78.4824 11.7994C78.6734 11.9872 78.7684 12.2275 78.7684 12.5193V21.1915C79.1497 20.6279 79.7021 20.1482 80.4242 19.7514C81.1473 19.3548 81.9599 19.1563 82.8633 19.1563Z" fill="white"/>
<path fill-rule="evenodd" clip-rule="evenodd" d="M93.6298 23.7273V28.0477C93.6298 29.4878 93.9909 30.5733 94.7135 31.3037C95.4361 32.0344 96.3995 32.3995 97.6035 32.3995C100.434 32.3995 101.849 30.4894 101.849 26.6703C101.849 22.8719 100.434 20.9719 97.6035 20.9719C97.0814 20.9719 96.5846 21.0664 96.1135 21.2542C95.6419 21.4422 95.26 21.6717 94.9692 21.9429C94.6782 22.2143 94.4278 22.4858 94.2166 22.7567C94.006 23.0284 93.86 23.2579 93.7803 23.4457L93.6298 23.7273ZM97.7241 19.1563C101.758 19.1563 103.775 21.6612 103.775 26.6703C103.775 29.1956 103.243 31.0842 102.18 32.3365C101.116 33.5889 99.5907 34.2152 97.6036 34.2152C95.8169 34.2152 94.3871 33.6883 93.3135 32.6342C92.2396 31.5805 91.7029 30.0514 91.7029 28.0477V12.5193C91.7029 12.2275 91.7977 11.9872 91.9886 11.7994C92.1793 11.6113 92.4053 11.5175 92.666 11.5175C92.9268 11.5175 93.1525 11.6113 93.3435 11.7994C93.5339 11.9872 93.6298 12.2275 93.6298 12.5193V21.1915C94.0105 20.6279 94.5627 20.1482 95.2855 19.7514C96.0078 19.3548 96.8212 19.1563 97.7241 19.1563Z" fill="white"/>
<path fill-rule="evenodd" clip-rule="evenodd" d="M108.952 20.2368V32.9477C108.952 33.2401 108.862 33.4795 108.681 33.6676C108.501 33.8553 108.269 33.9495 107.988 33.9495C107.707 33.9495 107.477 33.8553 107.296 33.6676C107.115 33.4795 107.025 33.2401 107.025 32.9477V20.2368C107.025 19.9452 107.115 19.705 107.296 19.5166C107.477 19.3291 107.707 19.2347 107.988 19.2347C108.269 19.2347 108.501 19.3291 108.681 19.5166C108.862 19.705 108.952 19.9452 108.952 20.2368ZM107.988 16.2921C107.225 16.2921 106.844 15.8958 106.844 15.1027C106.844 14.2679 107.225 13.8501 107.988 13.8501C108.751 13.8501 109.133 14.2679 109.133 15.1027C109.133 15.8958 108.751 16.2921 107.988 16.2921Z" fill="white"/>
<path fill-rule="evenodd" clip-rule="evenodd" d="M113.969 19.5968V16.3096C113.969 16.0384 114.064 15.8037 114.255 15.6051C114.445 15.4068 114.671 15.308 114.932 15.308C115.193 15.308 115.418 15.4068 115.609 15.6051C115.8 15.8037 115.895 16.0384 115.895 16.3096V19.5968H117.852C118.113 19.5968 118.329 19.6861 118.499 19.8627C118.67 20.0403 118.755 20.2651 118.755 20.536C118.755 20.8075 118.67 21.0323 118.499 21.209C118.329 21.3865 118.113 21.4755 117.852 21.4755H115.895V30.1159C115.895 30.7629 116.056 31.2693 116.377 31.6344C116.698 31.9997 117.119 32.182 117.641 32.182C117.902 32.182 118.123 32.2712 118.304 32.4485C118.485 32.6261 118.575 32.8506 118.575 33.1217C118.575 33.3929 118.485 33.6174 118.304 33.7947C118.123 33.9717 117.902 34.0606 117.641 34.0606C116.477 34.0606 115.574 33.6959 114.932 32.9652C114.289 32.2345 113.969 31.2851 113.969 30.1159V21.4755H112.795C112.533 21.4755 112.317 21.3865 112.147 21.209C111.976 21.0323 111.891 20.8075 111.891 20.536C111.891 20.2651 111.976 20.0403 112.147 19.8627C112.317 19.6861 112.533 19.5968 112.795 19.5968H113.969Z" fill="white"/>
<path fill-rule="evenodd" clip-rule="evenodd" d="M12.1568 12.6865C12.1047 12.7178 12.0551 12.7522 12.0075 12.789L1.15708 6.27006L0.599071 5.93489C0.647446 5.89677 0.698831 5.86146 0.752525 5.82919L10.1049 0.209767C10.5707 -0.0701488 11.1443 -0.0696265 11.6097 0.209559L20.9625 5.82961C21.3677 6.07349 21.6375 6.49587 21.7003 6.97037C21.635 6.99753 21.5712 7.02991 21.5092 7.06709L12.1568 12.6865ZM32.5428 26.5145C32.4889 26.4708 32.4315 26.4299 32.371 26.394L23.0183 20.774C22.9642 20.7417 22.9095 20.7136 22.8529 20.6887C22.4933 20.5297 22.0884 20.5229 21.7245 20.6692L21.7092 20.6755C21.7037 20.6778 21.6983 20.6801 21.6927 20.6823C21.6319 20.7083 21.5717 20.7393 21.5135 20.7742L12.1611 26.3936C12.1029 26.4285 12.0471 26.4673 11.9951 26.5091L11.9836 26.516C11.6758 26.2663 11.4733 25.9013 11.4195 25.499L11.4309 25.4922C11.4917 25.4662 11.552 25.4352 11.6101 25.4003L20.9625 19.7809C21.0206 19.746 21.0765 19.7071 21.1286 19.6654L21.1373 19.6582C21.1438 19.6529 21.1503 19.6476 21.1562 19.642C21.4599 19.3872 21.6563 19.0183 21.7032 18.6149C21.7111 18.5523 21.715 18.4889 21.715 18.4249L21.7146 7.18549C21.715 7.113 21.7098 7.04083 21.7003 6.97043L21.7244 6.9604C22.0884 6.81554 22.4939 6.82347 22.8533 6.98338C22.8536 6.98401 22.8542 6.98369 22.8545 6.98422C22.909 7.00803 22.9619 7.03571 23.0141 7.06694L32.3668 12.6869C32.8326 12.9668 33.119 13.4831 33.119 14.0428L33.1193 25.2822C33.1193 25.3448 33.1158 25.4064 33.1084 25.4674L33.1088 25.4679C33.0621 25.8719 32.8666 26.2409 32.5639 26.4965L32.5565 26.5031L32.5472 26.5109L32.5428 26.5145ZM21.7246 46C21.6528 45.971 21.5822 45.9366 21.5139 45.8957L12.161 40.2957C11.6954 40.0169 11.4088 39.5023 11.4089 38.9447L11.4085 27.7453C11.4089 27.2624 11.6243 26.8106 11.9851 26.5173C12.039 26.5609 12.0964 26.6015 12.1568 26.6374L12.5595 26.8783L21.5096 32.2375C21.5792 32.2791 21.6509 32.3143 21.7247 32.3428V44.6572L21.7246 46ZM23.0186 45.9118L32.371 40.298C32.8369 40.0191 33.1232 39.5038 33.1235 38.9466L33.1232 27.7456C33.1229 27.2601 32.9063 26.8073 32.5428 26.5145C32.4875 26.5596 32.4287 26.6008 32.3668 26.6379L23.0144 32.238C22.9617 32.2695 22.9077 32.2974 22.8533 32.3218L22.8531 45.3148L22.8534 45.9972C22.9098 45.9725 22.9648 45.9439 23.0186 45.9118ZM10.1053 25.4005C10.5089 25.6425 10.9937 25.675 11.4191 25.497C11.4096 25.4266 11.4044 25.3545 11.4047 25.282L11.4049 24.7983L11.4044 14.0426C11.4043 13.959 11.411 13.8758 11.4241 13.795L1.14011 7.61582L0.0185669 6.94214C0.00632279 7.02173 0.000100362 7.10309 0 7.18529L0.000401447 18.4247C0.000401447 18.9843 0.286834 19.5007 0.752613 19.7806L10.1053 25.4005Z" fill="#009EFF"/>
</svg>
